<svg width="1179" height="374" viewBox="0 0 1179 374" fill="none" xmlns="http://www.w3.org/2000/svg">
<path d="M142.293 231.717C146.359 247.978 150.424 296.761 150.424 296.761C187.014 288.63 227.669 285.378 264.259 280.5C269.774 262.037 272.515 242.856 272.39 223.587C276.455 239.848 296.783 369.935 296.783 369.935H369.962C375.292 356.99 382.114 344.711 390.29 333.348C374.028 247.978 353.7 4.06519 353.7 4.06519C333.372 20.3261 260.193 24.3913 260.193 24.3913C251.208 47.6443 251.412 55.6528 235.8 73.1739C235.271 127.485 229.946 161.796 219.538 174.804H215.472C195.145 73.1739 170.752 16.2608 170.752 16.2608C150.424 32.5217 77.2449 28.4565 77.2449 28.4565C68.7479 48.7826 66.1866 58.2545 52.8518 73.1739C56.9173 227.652 4.06555 369.935 4.06555 369.935H117.9L134.162 333.348C139.258 299.704 141.975 265.743 142.293 231.717Z" fill="#8C2F26"/>
<path d="M20.3276 361.804H109.769L121.966 333.348C121.966 333.348 130.097 227.652 138.228 207.326C145.79 188.464 162.621 280.5 162.621 280.5C162.621 280.5 219.538 268.304 256.128 268.304C256.128 268.304 268.324 191.065 276.455 207.326C284.586 223.587 308.979 365.87 308.979 365.87H361.831L333.372 56.9131C307.528 67.3809 279.945 72.897 252.062 73.174L227.669 187H207.341L174.817 69.1087C154.774 75.3692 117.9 76.6294 65.0483 73.174C65.0483 73.174 85.3759 199.196 20.3276 361.804Z" fill="white"/>
<path d="M422.814 195.13C432.504 184.798 439.488 172.229 443.141 158.543H512.255C521.565 158.543 529.086 259.605 520.386 268.304C511.686 277.004 516.321 276.435 516.321 276.435C548.845 276.435 536.648 199.196 536.648 199.196C544.047 193.545 549.333 171.593 552.91 158.543H642.352C674.876 158.543 666.745 313.022 666.745 313.022C692.845 323.754 639.709 371.927 625.236 365.87C610.031 359.487 581.369 365.87 573.238 365.87C568.522 365.87 565.107 353.674 561.041 353.674C552.91 353.674 548.845 365.87 495.993 365.87C439.076 365.87 422.814 333.348 422.814 333.348V195.13Z" fill="#8C2F26"/>
<path d="M441.19 199.196H500.059C500.059 199.196 491.928 284.565 520.386 284.565C544.169 284.565 553.764 224.847 556.285 205.293C556.503 203.553 557.312 201.941 558.578 200.727C559.844 199.513 561.489 198.772 563.237 198.627L642.352 195.13C642.352 195.13 634.221 313.022 642.352 349.609H581.369C581.369 349.609 577.303 272.37 573.238 272.37C569.172 272.37 556.976 357.739 495.993 357.739C459.403 357.739 435.539 330.746 436.311 317.493C438.1 287.655 440.377 231.88 436.311 205.009C436.201 204.299 436.244 203.573 436.437 202.881C436.63 202.189 436.969 201.546 437.431 200.995C437.893 200.445 438.468 199.999 439.116 199.689C439.764 199.378 440.471 199.21 441.19 199.196Z" fill="white"/>
<path d="M719.597 158.543C739.518 171.39 835.017 166.674 918.807 162.609V243.913C918.114 249.496 916.319 254.886 913.528 259.771C910.736 264.656 907.003 268.938 902.545 272.37L837.497 300.826C876.729 295.582 910.188 292.696 924.905 297.411C926.639 297.967 928.158 299.048 929.25 300.505C930.343 301.961 930.955 303.722 931.003 305.542V341.478C928.645 355.219 918.807 363.471 906.61 369.935H724.191C720.823 369.935 717.592 368.6 715.207 366.222C712.822 363.845 711.476 360.619 711.466 357.251V299.81C711.471 295.216 713.033 290.759 715.897 287.167L727.728 272.37C752.121 272.37 774.684 269.849 788.71 256.109H699.269V174.804L719.597 158.543Z" fill="#8C2F26"/>
<path d="M715.531 187C759.317 195.13 831.886 193.382 894.658 187V264.239L763.301 321.152C833.431 314.648 884.331 312.534 906.61 317.087V357.739C856.523 355.097 794.931 357.211 727.484 361.804V296.761C760.252 296.761 837.497 264.239 834.976 247.978H715.531V187Z" fill="white"/>
<path d="M1028.58 158.543H1113.38C1125.45 158.406 1137.18 162.555 1146.48 170.251C1153.05 175.766 1158.3 182.697 1161.82 190.525C1165.34 198.353 1167.04 206.877 1166.8 215.457V252.043C1166.8 252.043 1154.61 288.63 1126.15 288.63C1097.69 288.63 1028.58 292.696 1028.58 292.696C1028.58 292.696 1040.77 308.957 1109.89 304.891C1109.89 304.891 1146.48 304.891 1150.54 300.826C1154.61 296.761 1154.61 288.63 1162.74 288.63C1170.87 288.63 1183.07 308.957 1174.93 329.283C1166.8 349.609 1150.54 365.87 1138.34 365.87C1126.15 365.87 1000.12 378.065 972.756 330.746C969.921 327.092 967.76 322.962 966.373 318.55C962.836 297.777 953.404 235.132 963.528 211.554C975.724 182.935 1004.18 158.543 1028.58 158.543Z" fill="#8C2F26"/>
<path d="M1146.48 321.152C1150.26 333.104 1150.83 344.121 1146.48 353.674C1146.48 353.674 1067.89 360.503 1004.67 339.73C999.287 337.942 994.399 334.913 990.402 330.888C986.405 326.863 983.41 321.954 981.66 316.558C975.074 296.476 966.495 261.678 973.081 230.904C974.411 224.716 977.114 218.906 980.992 213.903C984.869 208.9 989.821 204.832 995.482 202.001C1010.65 194.399 1037.24 184.154 1077.36 178.87C1146.68 169.723 1147.41 207.326 1146.48 268.304C1146.23 284.565 1012.31 280.5 1012.31 280.5C1012.31 280.5 991.986 333.348 1146.48 321.152Z" fill="white"/>
<path d="M1012.31 247.978C1012.31 247.978 1016.38 207.326 1044.84 207.326C1073.3 207.326 1081.43 243.913 1081.43 243.913H1044.84C1041.19 244.7 1037.74 246.236 1034.71 248.425C1031.91 250.092 1029.51 251.678 1028.58 252.043C1020.44 255.092 1012.31 252.043 1012.31 247.978Z" fill="#8C2F26"/>
<path d="M1052.97 231.717C1052.97 231.717 1052.97 239.848 1057.03 239.848C1061.1 239.848 1065.17 227.652 1052.97 231.717Z" fill="white"/>
</svg>
