<svg width="30" height="30" viewBox="0 0 30 30" fill="none" xmlns="http://www.w3.org/2000/svg">
<path d="M25.1111 12.6765V6.32353C25.1111 4.76414 23.8177 3.5 22.2222 3.5H4.88889C3.2934 3.5 2 4.76414 2 6.32353V17.3721C2 18.9315 3.2934 20.1957 4.88889 20.1957H7.14976V26.0882L13.1787 20.1957H13.5556M21.0133 23.8171L24.7814 27.5V23.8171H25.1111C26.7066 23.8171 28 22.553 28 20.9936V16.2059C28 14.6465 26.7066 13.3824 25.1111 13.3824H16.4444C14.849 13.3824 13.5556 14.6465 13.5556 16.2059V20.9936C13.5556 22.553 14.849 23.8171 16.4444 23.8171H21.0133Z" stroke="#8C2F26" stroke-width="2" stroke-linecap="round" stroke-linejoin="round"/>
</svg>
