<?xml version="1.0" encoding="UTF-8"?>
<svg id="Layer_1" data-name="Layer 1" xmlns="http://www.w3.org/2000/svg" viewBox="0 0 18.7 24.24">
  <defs>
    <style>
      .cls-1 {
        fill: none;
        stroke: #8c2f26;
        stroke-linecap: round;
        stroke-linejoin: round;
        stroke-width: 2px;
      }
    </style>
  </defs>
  <path class="cls-1" d="M14.45,6.54h1.39c1.02,0,1.86.82,1.86,1.83v3.12c0,1.01-.83,1.83-1.86,1.83h-2.78c-1.02,0-1.86-.82-1.86-1.83v-1.56"/>
  <path class="cls-1" d="M4.25,6.54h-1.39c-1.02,0-1.86.82-1.86,1.83v3.12c0,1.01.83,1.83,1.86,1.83h2.78c1.02,0,1.86-.82,1.86-1.83v-1.56"/>
  <path class="cls-1" d="M15.85,16.46c1.02,0,1.86.82,1.86,1.83v3.12c0,1.01-.83,1.83-1.86,1.83h-2.78c-1.02,0-1.86-.82-1.86-1.83v-3.12c0-1.01.83-1.83,1.86-1.83h2.78Z"/>
  <path class="cls-1" d="M2.86,16.46c-1.02,0-1.86.82-1.86,1.83v3.12c0,1.01.83,1.83,1.86,1.83h2.78c1.02,0,1.86-.82,1.86-1.83v-3.12c0-1.01-.83-1.83-1.86-1.83h-2.78Z"/>
  <polyline class="cls-1" points="6.23 4.12 9.35 7.23 12.47 4.12"/>
  <line class="cls-1" x1="9.35" y1="1" x2="9.35" y2="7.23"/>
</svg>