<svg width="26" height="26" viewBox="0 0 26 26" fill="none" xmlns="http://www.w3.org/2000/svg">
<path d="M13 10.1335L11.5472 7.22638C11.1865 6.5065 10.5609 5.47137 9.67525 4.6345C8.80425 3.81062 7.761 3.25 6.5 3.25C3.7765 3.25 1.625 5.40475 1.625 7.995C1.625 9.96288 2.52525 11.3523 4.6605 13.4712C5.20813 14.014 5.83212 14.6006 6.52275 15.2474C8.32325 16.9374 10.5625 19.0401 13 21.8514C15.4375 19.0401 17.6768 16.9374 19.4772 15.2474C20.1679 14.6006 20.7935 14.0124 21.3395 13.4712C23.4748 11.3523 24.375 9.96288 24.375 7.995C24.375 5.40475 22.2235 3.25 19.5 3.25C18.2374 3.25 17.1957 3.81062 16.3247 4.6345C15.4391 5.47137 14.8135 6.5065 14.4528 7.22638L13 10.1335ZM13.637 23.608C13.5587 23.7007 13.4612 23.7752 13.3512 23.8263C13.2412 23.8774 13.1213 23.9039 13 23.9039C12.8787 23.9039 12.7588 23.8774 12.6488 23.8263C12.5388 23.7752 12.4413 23.7007 12.363 23.608C9.76137 20.5173 7.40675 18.3073 5.46812 16.4889C2.1125 13.338 0 11.3571 0 7.995C0 4.47688 2.90875 1.625 6.5 1.625C9.1 1.625 10.9184 3.33125 12.0315 4.888C12.454 5.48112 12.7758 6.0515 13 6.5C13.2814 5.93883 13.6052 5.39994 13.9685 4.888C15.0816 3.32962 16.9 1.625 19.5 1.625C23.0912 1.625 26 4.47688 26 7.995C26 11.3571 23.8875 13.338 20.5319 16.4889C18.5933 18.3089 16.2386 20.5205 13.637 23.608Z" fill="#8C2F26"/>
</svg>
