<svg width="22" height="26" viewBox="0 0 22 26" fill="none" xmlns="http://www.w3.org/2000/svg">
<path d="M1 5.72059H21M8.5 18.9559V11.0147M13.5 18.9559V11.0147M16 24.25H6C4.61929 24.25 3.5 23.0649 3.5 21.6029V7.04412C3.5 6.31315 4.05964 5.72059 4.75 5.72059H17.25C17.9404 5.72059 18.5 6.31315 18.5 7.04412V21.6029C18.5 23.0649 17.3807 24.25 16 24.25ZM8.5 5.72059H13.5C14.1904 5.72059 14.75 5.12802 14.75 4.39706V3.07353C14.75 2.34256 14.1904 1.75 13.5 1.75H8.5C7.80964 1.75 7.25 2.34256 7.25 3.07353V4.39706C7.25 5.12802 7.80964 5.72059 8.5 5.72059Z" stroke="#8C2F26" stroke-width="2" stroke-linecap="round" stroke-linejoin="round"/>
</svg>
